<svg xmlns="http://www.w3.org/2000/svg" fill="none" viewBox="0 0 36 21" height="21" width="36">
<g clip-path="url(#clip0)">
<path fill="#012169" d="M0 0V21H36V0H0Z"></path>
<path fill="black" d="M0 0L36 21L0 0ZM36 0L0 21Z"></path>
<path stroke-width="5" stroke="white" d="M36 0L0 21M0 0L36 21L0 0Z"></path>
<path fill="black" d="M0 0L36 21L0 0ZM36 0L0 21Z"></path>
<path stroke-width="2" stroke="#C8102E" d="M36 0L0 21M0 0L36 21L0 0Z"></path>
<path fill="black" d="M18 0V21V0ZM0 10.5H36Z"></path>
<path stroke-width="6" stroke="white" d="M0 10.5H36M18 0V21V0Z"></path>
<path fill="black" d="M18 0V21V0ZM0 10.5H36Z"></path>
<path stroke-width="3" stroke="#C8102E" d="M0 10.5H36M18 0V21V0Z"></path>
</g>
<defs>
<clipPath id="clip0">
<rect fill="white" height="21" width="36"></rect>
</clipPath>
</defs>
</svg>
