<svg width="116" height="101" viewBox="0 0 116 101" fill="none"
  xmlns="http://www.w3.org/2000/svg">
  <g filter="url(#filter0_d)">
    <rect x="8" y="8" width="100" height="85" rx="12" fill="#1C1C1C"/>
  </g>
  <path d="M26.47 47.215C26.47 46.075 26.815 45.065 27.505 44.185C28.195 43.305 29.01 42.615 29.95 42.115C29.05 41.625 28.33 41.015 27.79 40.285C27.26 39.555 26.995 38.675 26.995 37.645C26.995 36.675 27.26 35.81 27.79 35.05C28.33 34.29 29.06 33.695 29.98 33.265C30.9 32.835 31.935 32.62 33.085 32.62C34.285 32.62 35.34 32.83 36.25 33.25C37.17 33.66 37.885 34.235 38.395 34.975C38.905 35.705 39.16 36.55 39.16 37.51C39.16 38.48 38.88 39.33 38.32 40.06C37.76 40.79 37.075 41.365 36.265 41.785C37.285 42.335 38.11 43.035 38.74 43.885C39.38 44.735 39.7 45.77 39.7 46.99C39.7 48.12 39.39 49.09 38.77 49.9C38.16 50.7 37.34 51.315 36.31 51.745C35.29 52.175 34.17 52.39 32.95 52.39C31.01 52.39 29.445 51.94 28.255 51.04C27.065 50.14 26.47 48.865 26.47 47.215ZM33.58 40.75L33.97 40.87C35.38 40.1 36.085 39.03 36.085 37.66C36.085 36.8 35.795 36.13 35.215 35.65C34.635 35.16 33.92 34.915 33.07 34.915C32.25 34.915 31.55 35.165 30.97 35.665C30.4 36.155 30.115 36.805 30.115 37.615C30.115 38.425 30.425 39.075 31.045 39.565C31.675 40.055 32.52 40.45 33.58 40.75ZM29.65 47.005C29.65 48.005 29.98 48.775 30.64 49.315C31.3 49.855 32.105 50.125 33.055 50.125C34.015 50.125 34.825 49.84 35.485 49.27C36.155 48.7 36.49 47.93 36.49 46.96C36.49 45.97 36.115 45.18 35.365 44.59C34.615 44 33.755 43.555 32.785 43.255L32.26 43.09C32.24 43.08 32.22 43.07 32.2 43.06C31.35 43.53 30.71 44.115 30.28 44.815C29.86 45.515 29.65 46.245 29.65 47.005ZM43.0312 50.485C43.0912 50.155 43.2462 49.785 43.4962 49.375C43.7462 48.955 44.0312 48.63 44.3512 48.4C44.9512 48.82 45.5812 49.165 46.2412 49.435C46.9112 49.705 47.6512 49.84 48.4612 49.84C49.1312 49.84 49.7562 49.69 50.3362 49.39C50.9162 49.09 51.3862 48.63 51.7462 48.01C52.1162 47.39 52.3012 46.6 52.3012 45.64C52.3012 44.67 52.1112 43.91 51.7312 43.36C51.3612 42.81 50.8912 42.42 50.3212 42.19C49.7612 41.96 49.1912 41.845 48.6112 41.845C47.3912 41.845 46.2612 42.285 45.2212 43.165C44.9412 43.105 44.6562 42.97 44.3662 42.76C44.0762 42.55 43.8562 42.33 43.7062 42.1L44.1562 33.205L44.3512 33.01H54.5212C54.6012 33.24 54.6562 33.47 54.6862 33.7C54.7162 33.93 54.7312 34.125 54.7312 34.285C54.7312 35.215 54.2712 35.68 53.3512 35.68H48.1612C47.8012 35.68 47.4212 35.675 47.0212 35.665C47.0312 36.305 47.0262 36.81 47.0062 37.18L46.8862 39.13C46.8762 39.39 46.8562 39.65 46.8262 39.91C47.2262 39.74 47.6462 39.61 48.0862 39.52C48.5262 39.42 48.9762 39.37 49.4362 39.37C51.2762 39.37 52.7512 39.915 53.8612 41.005C54.9812 42.085 55.5412 43.57 55.5412 45.46C55.5412 47.05 55.2062 48.355 54.5362 49.375C53.8662 50.395 53.0062 51.155 51.9562 51.655C50.9062 52.145 49.8062 52.39 48.6562 52.39C47.4762 52.39 46.4012 52.21 45.4312 51.85C44.4712 51.49 43.6712 51.035 43.0312 50.485ZM71.7873 49.285C71.7873 50.345 71.6273 51.065 71.3073 51.445C70.9973 51.825 70.4673 52.015 69.7173 52.015H60.4023C60.0923 51.685 59.8073 51.355 59.5473 51.025C59.2873 50.685 59.1573 50.305 59.1573 49.885C59.1573 49.315 59.3323 48.72 59.6823 48.1C60.0423 47.48 60.5073 46.865 61.0773 46.255C61.6473 45.635 62.2573 45.045 62.9073 44.485L65.8473 41.995C66.5473 41.405 67.0973 40.815 67.4973 40.225C67.9073 39.635 68.1123 38.945 68.1123 38.155C68.1123 37.255 67.8373 36.535 67.2873 35.995C66.7473 35.455 66.0523 35.185 65.2023 35.185C64.3723 35.185 63.6473 35.465 63.0273 36.025C62.4073 36.575 61.9373 37.25 61.6173 38.05C61.2373 38.03 60.8223 37.935 60.3723 37.765C59.9223 37.585 59.5923 37.325 59.3823 36.985C59.6723 36.215 60.0973 35.5 60.6573 34.84C61.2173 34.17 61.9023 33.635 62.7123 33.235C63.5323 32.825 64.4523 32.62 65.4723 32.62C67.2623 32.62 68.6823 33.14 69.7323 34.18C70.7923 35.21 71.3223 36.545 71.3223 38.185C71.3223 39.155 71.1423 39.995 70.7823 40.705C70.4323 41.415 69.9723 42.055 69.4023 42.625C68.8323 43.195 68.2223 43.755 67.5723 44.305L65.2773 46.21C64.5173 46.85 63.8623 47.46 63.3123 48.04C62.7723 48.62 62.4423 49.11 62.3223 49.51C63.0623 49.43 63.7873 49.375 64.4973 49.345C65.2173 49.305 65.8123 49.285 66.2823 49.285H71.7873ZM87.9885 49.285C87.9885 50.345 87.8285 51.065 87.5085 51.445C87.1985 51.825 86.6685 52.015 85.9185 52.015H76.6035C76.2935 51.685 76.0085 51.355 75.7485 51.025C75.4885 50.685 75.3585 50.305 75.3585 49.885C75.3585 49.315 75.5335 48.72 75.8835 48.1C76.2435 47.48 76.7085 46.865 77.2785 46.255C77.8485 45.635 78.4585 45.045 79.1085 44.485L82.0485 41.995C82.7485 41.405 83.2985 40.815 83.6985 40.225C84.1085 39.635 84.3135 38.945 84.3135 38.155C84.3135 37.255 84.0385 36.535 83.4885 35.995C82.9485 35.455 82.2535 35.185 81.4035 35.185C80.5735 35.185 79.8485 35.465 79.2285 36.025C78.6085 36.575 78.1385 37.25 77.8185 38.05C77.4385 38.03 77.0235 37.935 76.5735 37.765C76.1235 37.585 75.7935 37.325 75.5835 36.985C75.8735 36.215 76.2985 35.5 76.8585 34.84C77.4185 34.17 78.1035 33.635 78.9135 33.235C79.7335 32.825 80.6535 32.62 81.6735 32.62C83.4635 32.62 84.8835 33.14 85.9335 34.18C86.9935 35.21 87.5235 36.545 87.5235 38.185C87.5235 39.155 87.3435 39.995 86.9835 40.705C86.6335 41.415 86.1735 42.055 85.6035 42.625C85.0335 43.195 84.4235 43.755 83.7735 44.305L81.4785 46.21C80.7185 46.85 80.0635 47.46 79.5135 48.04C78.9735 48.62 78.6435 49.11 78.5235 49.51C79.2635 49.43 79.9885 49.375 80.6985 49.345C81.4185 49.305 82.0135 49.285 82.4835 49.285H87.9885Z" fill="#ED454B"/>
  <path d="M77.9225 20.63H79.625C79.74 20.63 79.86 20.6325 79.985 20.6375C80.115 20.6425 80.2375 20.645 80.3525 20.645C80.3525 20.525 80.35 20.4025 80.345 20.2775C80.345 20.1475 80.345 20.025 80.345 19.91V18.065C80.455 18.04 80.5675 18.0225 80.6825 18.0125C80.7975 18.0025 80.92 17.9975 81.05 17.9975C81.175 17.9975 81.2975 18.0025 81.4175 18.0125C81.5375 18.0225 81.65 18.04 81.755 18.065V19.91C81.755 20.025 81.7525 20.1475 81.7475 20.2775C81.7475 20.4025 81.7475 20.525 81.7475 20.645C81.8625 20.645 81.9825 20.6425 82.1075 20.6375C82.2375 20.6325 82.36 20.63 82.475 20.63H84.1775C84.2225 20.845 84.245 21.0675 84.245 21.2975C84.245 21.5475 84.2225 21.77 84.1775 21.965H82.475C82.36 21.965 82.2375 21.9625 82.1075 21.9575C81.9825 21.9525 81.8625 21.95 81.7475 21.95C81.7475 22.065 81.7475 22.1875 81.7475 22.3175C81.7525 22.4425 81.755 22.56 81.755 22.67V24.5225C81.65 24.5475 81.5375 24.565 81.4175 24.575C81.3025 24.585 81.1825 24.59 81.0575 24.59C80.9325 24.59 80.81 24.585 80.69 24.575C80.57 24.565 80.455 24.5475 80.345 24.5225V22.67C80.345 22.56 80.345 22.4425 80.345 22.3175C80.35 22.1875 80.3525 22.065 80.3525 21.95C80.2375 21.95 80.115 21.9525 79.985 21.9575C79.86 21.9625 79.74 21.965 79.625 21.965H77.9225C77.8775 21.775 77.855 21.5525 77.855 21.2975C77.855 21.0525 77.8775 20.83 77.9225 20.63ZM91.8976 24.6425C91.8976 25.1725 91.8176 25.5325 91.6576 25.7225C91.5026 25.9125 91.2376 26.0075 90.8626 26.0075H86.2051C86.0501 25.8425 85.9076 25.6775 85.7776 25.5125C85.6476 25.3425 85.5826 25.1525 85.5826 24.9425C85.5826 24.6575 85.6701 24.36 85.8451 24.05C86.0251 23.74 86.2576 23.4325 86.5426 23.1275C86.8276 22.8175 87.1326 22.5225 87.4576 22.2425L88.9276 20.9975C89.2776 20.7025 89.5526 20.4075 89.7526 20.1125C89.9576 19.8175 90.0601 19.4725 90.0601 19.0775C90.0601 18.6275 89.9226 18.2675 89.6476 17.9975C89.3776 17.7275 89.0301 17.5925 88.6051 17.5925C88.1901 17.5925 87.8276 17.7325 87.5176 18.0125C87.2076 18.2875 86.9726 18.625 86.8126 19.025C86.6226 19.015 86.4151 18.9675 86.1901 18.8825C85.9651 18.7925 85.8001 18.6625 85.6951 18.4925C85.8401 18.1075 86.0526 17.75 86.3326 17.42C86.6126 17.085 86.9551 16.8175 87.3601 16.6175C87.7701 16.4125 88.2301 16.31 88.7401 16.31C89.6351 16.31 90.3451 16.57 90.8701 17.09C91.4001 17.605 91.6651 18.2725 91.6651 19.0925C91.6651 19.5775 91.5751 19.9975 91.3951 20.3525C91.2201 20.7075 90.9901 21.0275 90.7051 21.3125C90.4201 21.5975 90.1151 21.8775 89.7901 22.1525L88.6426 23.105C88.2626 23.425 87.9351 23.73 87.6601 24.02C87.3901 24.31 87.2251 24.555 87.1651 24.755C87.5351 24.715 87.8976 24.6875 88.2526 24.6725C88.6126 24.6525 88.9101 24.6425 89.1451 24.6425H91.8976ZM99.9982 24.6425C99.9982 25.1725 99.9182 25.5325 99.7582 25.7225C99.6032 25.9125 99.3382 26.0075 98.9632 26.0075H94.3057C94.1507 25.8425 94.0082 25.6775 93.8782 25.5125C93.7482 25.3425 93.6832 25.1525 93.6832 24.9425C93.6832 24.6575 93.7707 24.36 93.9457 24.05C94.1257 23.74 94.3582 23.4325 94.6432 23.1275C94.9282 22.8175 95.2332 22.5225 95.5582 22.2425L97.0282 20.9975C97.3782 20.7025 97.6532 20.4075 97.8532 20.1125C98.0582 19.8175 98.1607 19.4725 98.1607 19.0775C98.1607 18.6275 98.0232 18.2675 97.7482 17.9975C97.4782 17.7275 97.1307 17.5925 96.7057 17.5925C96.2907 17.5925 95.9282 17.7325 95.6182 18.0125C95.3082 18.2875 95.0732 18.625 94.9132 19.025C94.7232 19.015 94.5157 18.9675 94.2907 18.8825C94.0657 18.7925 93.9007 18.6625 93.7957 18.4925C93.9407 18.1075 94.1532 17.75 94.4332 17.42C94.7132 17.085 95.0557 16.8175 95.4607 16.6175C95.8707 16.4125 96.3307 16.31 96.8407 16.31C97.7357 16.31 98.4457 16.57 98.9707 17.09C99.5007 17.605 99.7657 18.2725 99.7657 19.0925C99.7657 19.5775 99.6757 19.9975 99.4957 20.3525C99.3207 20.7075 99.0907 21.0275 98.8057 21.3125C98.5207 21.5975 98.2157 21.8775 97.8907 22.1525L96.7432 23.105C96.3632 23.425 96.0357 23.73 95.7607 24.02C95.4907 24.31 95.3257 24.555 95.2657 24.755C95.6357 24.715 95.9982 24.6875 96.3532 24.6725C96.7132 24.6525 97.0107 24.6425 97.2457 24.6425H99.9982Z" fill="#ED454B"/>
  <path d="M37.0925 67.77C37.0925 68.46 36.9075 69.045 36.5375 69.525C36.1675 70 35.71 70.325 35.165 70.5C35.415 70.59 35.6275 70.7525 35.8025 70.9875C35.9825 71.2175 36.125 71.48 36.23 71.775L36.89 73.53C37 73.825 37.105 74.0525 37.205 74.2125C37.31 74.3725 37.43 74.505 37.565 74.61C37.46 74.77 37.3025 74.8925 37.0925 74.9775C36.8875 75.0625 36.685 75.105 36.485 75.105C36.185 75.105 35.965 75.0225 35.825 74.8575C35.685 74.6925 35.555 74.45 35.435 74.13L34.685 72.0975C34.56 71.7525 34.3925 71.465 34.1825 71.235C33.9725 71 33.635 70.8825 33.17 70.8825H31.9475V75C31.8225 75.025 31.6875 75.04 31.5425 75.045C31.4025 75.055 31.27 75.06 31.145 75.06C31.03 75.06 30.8975 75.055 30.7475 75.045C30.6025 75.04 30.4725 75.025 30.3575 75V64.8375L30.455 64.7475C31.02 64.7375 31.5725 64.7275 32.1125 64.7175C32.6525 64.7025 33.1775 64.695 33.6875 64.695C34.7275 64.695 35.555 64.9575 36.17 65.4825C36.785 66.0075 37.0925 66.77 37.0925 67.77ZM31.9475 65.9475V69.6075C32.2375 69.5975 32.535 69.59 32.84 69.585C33.145 69.58 33.4 69.5775 33.605 69.5775C34.095 69.5775 34.4725 69.4875 34.7375 69.3075C35.0025 69.1275 35.185 68.9 35.285 68.625C35.385 68.345 35.435 68.06 35.435 67.77C35.435 67.465 35.385 67.175 35.285 66.9C35.185 66.625 35.0025 66.4 34.7375 66.225C34.4725 66.05 34.095 65.9625 33.605 65.9625C33.39 65.9625 33.1225 65.9625 32.8025 65.9625C32.4875 65.9575 32.2025 65.9525 31.9475 65.9475ZM44.2783 74.3475C43.9183 74.6025 43.4908 74.8075 42.9958 74.9625C42.5008 75.1175 41.9933 75.195 41.4733 75.195C40.8783 75.195 40.3808 75.09 39.9808 74.88C39.5808 74.665 39.2633 74.3775 39.0283 74.0175C38.7933 73.6525 38.6258 73.2375 38.5258 72.7725C38.4258 72.3025 38.3758 71.815 38.3758 71.31C38.3758 70.565 38.4908 69.8975 38.7208 69.3075C38.9558 68.7175 39.3033 68.2525 39.7633 67.9125C40.2283 67.5725 40.8083 67.4025 41.5033 67.4025C42.1533 67.4025 42.6983 67.545 43.1383 67.83C43.5833 68.115 43.9183 68.5 44.1433 68.985C44.3683 69.465 44.4808 70.0025 44.4808 70.5975C44.4808 70.8375 44.4708 71.045 44.4508 71.22C44.4358 71.39 44.4083 71.5775 44.3683 71.7825H39.9808C40.0108 72.4075 40.1483 72.9225 40.3933 73.3275C40.6383 73.7325 41.0758 73.935 41.7058 73.935C42.0808 73.935 42.4433 73.88 42.7933 73.77C43.1433 73.66 43.4783 73.525 43.7983 73.365C43.9233 73.485 44.0283 73.64 44.1133 73.83C44.2033 74.02 44.2583 74.1925 44.2783 74.3475ZM41.5033 68.5425C41.0233 68.5425 40.6558 68.73 40.4008 69.105C40.1508 69.48 40.0108 70 39.9808 70.665H42.9958V70.47C42.9958 69.945 42.8808 69.4925 42.6508 69.1125C42.4208 68.7325 42.0383 68.5425 41.5033 68.5425ZM46.9705 67.53C47.4705 67.53 47.7755 67.7825 47.8855 68.2875C48.1355 68.0325 48.4355 67.8225 48.7855 67.6575C49.1405 67.4875 49.5255 67.4025 49.9405 67.4025C50.5105 67.4025 50.9855 67.5625 51.3655 67.8825C51.7505 68.2025 52.038 68.65 52.228 69.225C52.423 69.795 52.5205 70.455 52.5205 71.205C52.5205 72.1 52.3805 72.8375 52.1005 73.4175C51.8205 73.9975 51.4605 74.4275 51.0205 74.7075C50.5805 74.9875 50.1205 75.1275 49.6405 75.1275C49.3205 75.1275 49.018 75.0825 48.733 74.9925C48.453 74.8975 48.183 74.7775 47.923 74.6325V77.2425C47.923 77.5875 47.863 77.8375 47.743 77.9925C47.628 78.1525 47.408 78.2325 47.083 78.2325H46.498L46.4005 78.135V67.6275L46.498 67.53H46.9705ZM49.5805 68.6925C49.3105 68.6925 49.0255 68.7725 48.7255 68.9325C48.4255 69.0875 48.158 69.335 47.923 69.675V73.335C48.153 73.485 48.3955 73.615 48.6505 73.725C48.9055 73.835 49.1655 73.89 49.4305 73.89C49.8505 73.89 50.2055 73.6725 50.4955 73.2375C50.7905 72.7975 50.938 72.12 50.938 71.205C50.938 70.31 50.803 69.6675 50.533 69.2775C50.263 68.8875 49.9455 68.6925 49.5805 68.6925ZM60.3246 71.295C60.3246 72.065 60.2021 72.7425 59.9571 73.3275C59.7121 73.9125 59.3496 74.37 58.8696 74.7C58.3896 75.03 57.7921 75.195 57.0771 75.195C56.3671 75.195 55.7721 75.03 55.2921 74.7C54.8121 74.365 54.4496 73.905 54.2046 73.32C53.9646 72.73 53.8446 72.055 53.8446 71.295C53.8446 70.535 53.9671 69.8625 54.2121 69.2775C54.4571 68.6875 54.8196 68.2275 55.2996 67.8975C55.7796 67.5675 56.3721 67.4025 57.0771 67.4025C57.7971 67.4025 58.3971 67.57 58.8771 67.905C59.3571 68.235 59.7171 68.695 59.9571 69.285C60.2021 69.87 60.3246 70.54 60.3246 71.295ZM55.4421 71.295C55.4421 71.765 55.4896 72.2075 55.5846 72.6225C55.6796 73.0325 55.8471 73.3675 56.0871 73.6275C56.3271 73.8825 56.6621 74.01 57.0921 74.01C57.5171 74.01 57.8471 73.8825 58.0821 73.6275C58.3221 73.3675 58.4896 73.0325 58.5846 72.6225C58.6796 72.2075 58.7271 71.765 58.7271 71.295C58.7271 70.835 58.6796 70.3975 58.5846 69.9825C58.4896 69.5675 58.3221 69.23 58.0821 68.97C57.8471 68.71 57.5171 68.58 57.0921 68.58C56.6621 68.58 56.3271 68.71 56.0871 68.97C55.8471 69.23 55.6796 69.5675 55.5846 69.9825C55.4896 70.3975 55.4421 70.835 55.4421 71.295ZM61.7275 68.31C61.7625 68.17 61.835 68.0175 61.945 67.8525C62.055 67.6875 62.17 67.565 62.29 67.485C62.65 67.565 62.9425 67.72 63.1675 67.95C63.3975 68.18 63.565 68.47 63.67 68.82C63.845 68.44 64.09 68.125 64.405 67.875C64.72 67.62 65.1275 67.4925 65.6275 67.4925C65.7625 67.4925 65.8925 67.5 66.0175 67.515C66.1425 67.53 66.2775 67.55 66.4225 67.575C66.4225 67.785 66.3925 68.03 66.3325 68.31C66.2775 68.585 66.1825 68.8275 66.0475 69.0375C65.9475 69.0125 65.845 68.9975 65.74 68.9925C65.64 68.9825 65.54 68.975 65.44 68.97C65.035 68.97 64.7025 69.085 64.4425 69.315C64.1875 69.54 63.9825 69.805 63.8275 70.11V75C63.6175 75.04 63.36 75.06 63.055 75.06C62.755 75.06 62.4975 75.04 62.2825 75V69.855C62.2825 69.455 62.2225 69.1275 62.1025 68.8725C61.9825 68.6175 61.8575 68.43 61.7275 68.31ZM68.2698 66.285C68.2698 65.94 68.3273 65.69 68.4423 65.535C68.5573 65.375 68.7798 65.295 69.1098 65.295H69.6948L69.7848 65.3925V67.605L71.6448 67.5825C71.6898 67.7775 71.7123 67.965 71.7123 68.145C71.7123 68.35 71.6898 68.5425 71.6448 68.7225L69.7848 68.7V73.185C69.7848 73.385 69.8323 73.545 69.9273 73.665C70.0223 73.78 70.1823 73.8375 70.4073 73.8375H71.4348C71.5198 74.0675 71.5623 74.3275 71.5623 74.6175C71.5623 74.6775 71.5598 74.7375 71.5548 74.7975C71.5548 74.8525 71.5473 74.905 71.5323 74.955C71.2823 74.985 71.0148 75.01 70.7298 75.03C70.4448 75.055 70.1548 75.0675 69.8598 75.0675C68.7998 75.0675 68.2698 74.5525 68.2698 73.5225V68.7075L67.1748 68.7225C67.1298 68.5425 67.1073 68.35 67.1073 68.145C67.1073 67.965 67.1298 67.7775 67.1748 67.5825L68.2698 67.5975V66.285ZM78.5117 74.3475C78.1517 74.6025 77.7242 74.8075 77.2292 74.9625C76.7342 75.1175 76.2267 75.195 75.7067 75.195C75.1117 75.195 74.6142 75.09 74.2142 74.88C73.8142 74.665 73.4967 74.3775 73.2617 74.0175C73.0267 73.6525 72.8592 73.2375 72.7592 72.7725C72.6592 72.3025 72.6092 71.815 72.6092 71.31C72.6092 70.565 72.7242 69.8975 72.9542 69.3075C73.1892 68.7175 73.5367 68.2525 73.9967 67.9125C74.4617 67.5725 75.0417 67.4025 75.7367 67.4025C76.3867 67.4025 76.9317 67.545 77.3717 67.83C77.8167 68.115 78.1517 68.5 78.3767 68.985C78.6017 69.465 78.7142 70.0025 78.7142 70.5975C78.7142 70.8375 78.7042 71.045 78.6842 71.22C78.6692 71.39 78.6417 71.5775 78.6017 71.7825H74.2142C74.2442 72.4075 74.3817 72.9225 74.6267 73.3275C74.8717 73.7325 75.3092 73.935 75.9392 73.935C76.3142 73.935 76.6767 73.88 77.0267 73.77C77.3767 73.66 77.7117 73.525 78.0317 73.365C78.1567 73.485 78.2617 73.64 78.3467 73.83C78.4367 74.02 78.4917 74.1925 78.5117 74.3475ZM75.7367 68.5425C75.2567 68.5425 74.8892 68.73 74.6342 69.105C74.3842 69.48 74.2442 70 74.2142 70.665H77.2292V70.47C77.2292 69.945 77.1142 69.4925 76.8842 69.1125C76.6542 68.7325 76.2717 68.5425 75.7367 68.5425ZM80.1239 71.385C80.1239 70.495 80.2639 69.76 80.5439 69.18C80.8239 68.6 81.1839 68.17 81.6239 67.89C82.0639 67.605 82.5239 67.4625 83.0039 67.4625C83.3189 67.4625 83.6164 67.51 83.8964 67.605C84.1764 67.695 84.4439 67.8125 84.6989 67.9575V64.065L84.7964 63.9675H85.3814C85.7064 63.9675 85.9264 64.0475 86.0414 64.2075C86.1614 64.3625 86.2214 64.6125 86.2214 64.9575V72.8925C86.2214 73.1825 86.2489 73.455 86.3039 73.71C86.3639 73.965 86.4764 74.165 86.6414 74.31C86.6014 74.45 86.5239 74.6 86.4089 74.76C86.2989 74.915 86.1814 75.0325 86.0564 75.1125C85.7564 75.0525 85.5114 74.94 85.3214 74.775C85.1314 74.61 84.9864 74.41 84.8864 74.175C84.6314 74.465 84.3164 74.7075 83.9414 74.9025C83.5714 75.0975 83.1589 75.195 82.7039 75.195C82.1339 75.195 81.6564 75.035 81.2714 74.715C80.8914 74.39 80.6039 73.9425 80.4089 73.3725C80.2189 72.7975 80.1239 72.135 80.1239 71.385ZM81.7064 71.3925C81.7064 72.2875 81.8414 72.93 82.1114 73.32C82.3814 73.71 82.6989 73.905 83.0639 73.905C83.3289 73.905 83.6089 73.8275 83.9039 73.6725C84.2039 73.5175 84.4689 73.2775 84.6989 72.9525V69.2475C84.4739 69.0975 84.2339 68.97 83.9789 68.865C83.7289 68.76 83.4739 68.7075 83.2139 68.7075C82.7939 68.7075 82.4364 68.9275 82.1414 69.3675C81.8514 69.8025 81.7064 70.4775 81.7064 71.3925Z" fill="white" fill-opacity="0.6"/>
  <defs>
    <filter id="filter0_d" x="0" y="0" width="116" height="101" filterUnits="userSpaceOnUse" color-interpolation-filters="sRGB">
      <feFlood flood-opacity="0" result="BackgroundImageFix"/>
      <feColorMatrix in="SourceAlpha" type="matrix" values="0 0 0 0 0 0 0 0 0 0 0 0 0 0 0 0 0 0 127 0"/>
      <feMorphology radius="2" operator="dilate" in="SourceAlpha" result="effect1_dropShadow"/>
      <feOffset/>
      <feGaussianBlur stdDeviation="3"/>
      <feColorMatrix type="matrix" values="0 0 0 0 0 0 0 0 0 0 0 0 0 0 0 0 0 0 0.1 0"/>
      <feBlend mode="normal" in2="BackgroundImageFix" result="effect1_dropShadow"/>
      <feBlend mode="normal" in="SourceGraphic" in2="effect1_dropShadow" result="shape"/>
    </filter>
  </defs>
</svg>
